# xmcd CD database file
#
# Track frame offsets:
#	150
#	27113
#	50820
#	71428
#	87287
#	107675
#	130368
#	155269
#	174266
#
# Disc length: 2530 seconds
#
# Revision: 0
# Processed by: cddbd v1.5.2PL0 Copyright (c) Steve Scherf et al.
# Submitted via: CDex 1.70beta2
#
DISCID=6e09e009
DTITLE=MORTAL SIN - PSYCHOLOGY OF DEATH (2011 ALBUM)
DYEAR=2011
DGENRE=Thrash Metal
TTITLE0=PSYCHOLOGY OF DEATH 
TTITLE1=BLOOD OF MY ENEMIES
TTITLE2=PARALYSED 
TTITLE3=BURNED INTO YOUR SOUL
TTITLE4=DENY 
TTITLE5=DOOMED TO ANNIHILATION 
TTITLE6=KINGDOM OF PAIN 
TTITLE7=DOWN IN THE PIT 
TTITLE8=HATRED 
EXTD=YEAR: 2011
EXTT0=
EXTT1=
EXTT2=
EXTT3=
EXTT4=
EXTT5=
EXTT6=
EXTT7=
EXTT8=
PLAYORDER=
